<svg width="132" height="90" viewBox="0 0 132 90" fill="none" xmlns="http://www.w3.org/2000/svg">
<g clip-path="url(#clip0_10402_121311)">
<path d="M71.3433 16H43.7877L37.2411 40.7091H37.2521C36.943 41.9347 36.656 43.2043 36.4241 44.5403L35.8501 47.9298C35.276 50.977 35 53.7814 35 56.3428C35 62.095 36.38 66.5996 39.151 69.8677C43.1916 74.6262 50.3675 77 60.6567 77C70.9459 77 78.9277 74.6262 84.6132 69.8677C90.2877 65.1091 93.9861 57.8002 95.6863 47.9298L96.2603 44.5403C96.7571 41.8463 97 39.318 97 36.9774C97 22.9888 88.4551 16 71.3433 16ZM76.9847 44.9598L76.521 47.4992C75.6709 52.4675 74.1806 55.8791 72.0499 57.7229C69.9192 59.5667 67.0819 60.4941 63.5271 60.4941C57.5655 60.4941 54.5848 58.01 54.5848 53.0416C54.5848 51.1205 54.7283 49.2767 55.0153 47.5102L55.479 44.9709C56.8921 36.8118 61.2639 32.6605 68.5723 32.5169C74.3903 32.5169 77.3048 35.3875 77.3048 41.1397C77.3048 42.2769 77.1944 43.5576 76.9847 44.9709V44.9598Z" fill="#FE4864"/>
</g>
<defs>
<clipPath id="clip0_10402_121311">
<rect width="62" height="61" fill="white" transform="translate(35 16)"/>
</clipPath>
</defs>
</svg>
