<svg width="132" height="90" viewBox="0 0 132 90" fill="none" xmlns="http://www.w3.org/2000/svg">
<path d="M36.217 32.1665H24.8096L22.0984 42.56H22.1056C21.9758 43.0805 21.8579 43.6156 21.7606 44.1751L21.5201 45.6009C21.2958 46.7685 21.1774 47.9545 21.1666 49.144C21.1666 51.5631 21.7397 53.4593 22.8859 54.8325C24.5603 56.8321 27.526 57.8324 31.7829 57.8332C36.0399 57.834 39.345 56.8338 41.6983 54.8325C44.0484 52.8321 45.5765 49.7565 46.2826 45.6058L46.5231 44.18C46.7204 43.1329 46.8238 42.0696 46.8321 41.0035C46.8361 35.1122 43.2977 32.1665 36.217 32.1665Z" fill="#FE4864"/>
<path d="M68.217 32.1665H56.8096L54.0984 42.56H54.1056C53.9758 43.0805 53.8579 43.6156 53.7606 44.1751L53.5201 45.6009C53.2958 46.7685 53.1774 47.9545 53.1666 49.144C53.1666 51.5631 53.7397 53.4593 54.8859 54.8325C56.5603 56.8321 59.526 57.8324 63.7829 57.8332C68.0399 57.834 71.345 56.8338 73.6983 54.8325C76.0484 52.8321 77.5765 49.7565 78.2827 45.6058L78.5231 44.18C78.7204 43.1329 78.8238 42.0696 78.8321 41.0035C78.8361 35.1122 75.2977 32.1665 68.217 32.1665Z" fill="#9859FF"/>
<path d="M99.9254 32.1665H88.518L85.8068 42.56H85.814C85.6841 43.0805 85.5663 43.6156 85.4689 44.1751L85.2285 45.6009C85.0041 46.7685 84.8858 47.9545 84.875 49.144C84.875 51.5631 85.4481 53.4593 86.5943 54.8325C88.2687 56.8321 91.2344 57.8324 95.4913 57.8332C99.7482 57.834 103.053 56.8338 105.407 54.8325C107.757 52.8321 109.285 49.7565 109.991 45.6058L110.231 44.18C110.429 43.1329 110.532 42.0696 110.54 41.0035C110.544 35.1122 107.006 32.1665 99.9254 32.1665Z" fill="#3577F6"/>
</svg>
