<svg width="20" height="19" viewBox="0 0 20 19" fill="none" xmlns="http://www.w3.org/2000/svg">
<g clip-path="url(#clip0_1634_38546)">
<path d="M19.4916 9.02333C19.45 8.17039 19.2953 7.32676 19.0317 6.51453L17.4428 7.03301C17.6603 7.6958 17.7869 8.38504 17.8191 9.08187H18.6554H17.8191C17.8191 9.21567 17.8191 9.34111 17.8191 9.47491C17.8213 10.5039 17.6208 11.5233 17.229 12.4748C16.8373 13.4264 16.2619 14.2914 15.5359 15.0206C14.8098 15.7498 13.9472 16.3288 12.9974 16.7246C12.0475 17.1204 11.029 17.3253 9.99999 17.3275C9.03316 17.3298 8.07445 17.1511 7.1734 16.8006L6.57129 18.3644C8.01069 18.9178 9.56309 19.1128 11.0946 18.9325C12.6262 18.7523 14.0909 18.2022 15.3625 17.3298C16.6341 16.4574 17.6744 15.2888 18.3938 13.9247C19.1131 12.5607 19.4899 11.0421 19.4916 9.5C19.5 9.34111 19.5 9.18222 19.4916 9.02333Z" fill="#C7CADB"/>
<path d="M16.364 4.93395L17.7187 3.96388C17.1926 3.23418 16.5646 2.58364 15.8539 2.0321L14.842 3.34504C15.4175 3.80483 15.9294 4.33915 16.364 4.93395V4.93395Z" fill="#C7CADB"/>
<path d="M2.34814 11.1725C2.27972 10.8526 2.23223 10.5285 2.20598 10.2024C2.20192 10.1775 2.20192 10.1521 2.20598 10.1272C2.18867 9.84869 2.18867 9.5694 2.20598 9.29091C2.20598 9.1822 2.20598 9.07348 2.20598 8.96477C2.20598 8.85605 2.25615 8.49646 2.2896 8.27067C2.2896 8.18704 2.2896 8.10341 2.33142 8.01979C2.38214 7.72213 2.45481 7.42864 2.54885 7.14171C3.05176 5.55859 4.04426 4.17599 5.38333 3.1931C6.7224 2.21022 8.33892 1.67778 9.99999 1.67252C10.9641 1.67 11.9201 1.84872 12.8182 2.19936L13.4203 0.635544C12.2182 0.172194 10.9344 -0.0417993 9.64693 0.00657829C8.3595 0.0549559 7.09536 0.364693 5.93139 0.916954C4.76741 1.46922 3.72793 2.25246 2.87616 3.21906C2.02439 4.18565 1.37812 5.3154 0.976662 6.53959V6.53959C0.976662 6.53959 0.976662 6.58977 0.976662 6.61486C0.866022 6.9666 0.773906 7.32389 0.700694 7.68528C0.700694 7.78563 0.700694 7.88598 0.700694 7.97797C0.651413 8.2546 0.617909 8.53381 0.600342 8.81424C0.600342 8.86442 0.600342 8.91459 0.600342 8.96477C0.600342 9.02331 0.600342 9.08185 0.600342 9.14875C0.600342 9.21565 0.600342 9.34109 0.600342 9.44144C0.600342 9.60033 0.600342 9.75922 0.600342 9.91811C0.604442 9.99332 0.604442 10.0687 0.600342 10.1439V10.3195C0.632191 10.6874 0.685242 11.0532 0.759232 11.415V11.415C0.823298 11.7424 0.904245 12.0661 1.00175 12.3851L2.59066 11.8666C2.47358 11.6743 2.40668 11.4067 2.34814 11.1725Z" fill="#C7CADB"/>
<path d="M3.62764 14.066L2.27289 15.0361C2.80116 15.7668 3.43207 16.4174 4.14613 16.9679L5.1831 15.655C4.59364 15.1998 4.07016 14.6651 3.62764 14.066V14.066Z" fill="#C7CADB"/>
<path d="M10 13.2883C12.0922 13.2883 13.7883 11.5922 13.7883 9.49996C13.7883 7.40775 12.0922 5.71167 10 5.71167C7.90781 5.71167 6.21173 7.40775 6.21173 9.49996C6.21173 11.5922 7.90781 13.2883 10 13.2883Z" fill="#C7CADB"/>
</g>
<defs>
<clipPath id="clip0_1634_38546">
<rect width="19" height="19" fill="white" transform="translate(0.5)"/>
</clipPath>
</defs>
</svg>
