<svg width="33" height="32" viewBox="0 0 33 32" fill="none" xmlns="http://www.w3.org/2000/svg">
<g clip-path="url(#clip0_5635_9023)">
<path d="M4.16113 10.711V5.42287C4.16113 4.95537 4.34685 4.50702 4.67742 4.17644C5.00799 3.84587 5.45634 3.66016 5.92384 3.66016H11.212" stroke="#6F6F85" stroke-width="1.5" stroke-linecap="round" stroke-linejoin="round"/>
<path d="M11.212 28.3399H5.92384C5.45634 28.3399 5.00799 28.1542 4.67742 27.8236C4.34685 27.4931 4.16113 27.0447 4.16113 26.5772V21.2891" stroke="#6F6F85" stroke-width="1.5" stroke-linecap="round" stroke-linejoin="round"/>
<path d="M28.8389 21.2891V26.5772C28.8389 27.0447 28.6532 27.4931 28.3226 27.8236C27.9921 28.1542 27.5437 28.3399 27.0762 28.3399H21.7881" stroke="#6F6F85" stroke-width="1.5" stroke-linecap="round" stroke-linejoin="round"/>
<path d="M21.7881 3.66016H27.0762C27.5437 3.66016 27.9921 3.84587 28.3226 4.17644C28.6532 4.50702 28.8389 4.95537 28.8389 5.42287V10.711" stroke="#6F6F85" stroke-width="1.5" stroke-linecap="round" stroke-linejoin="round"/>
<path d="M11.3706 11.8574V13.9903" stroke="#6F6F85" stroke-width="1.5" stroke-miterlimit="10" stroke-linecap="round"/>
<path d="M21.6294 11.8574V13.9903" stroke="#6F6F85" stroke-width="1.5" stroke-miterlimit="10" stroke-linecap="round"/>
<path d="M16.6499 12.1133V15.7973C16.6563 15.9205 16.6367 16.0437 16.5924 16.1588C16.5481 16.274 16.4802 16.3786 16.393 16.4658C16.3057 16.553 16.2012 16.621 16.086 16.6652C15.9709 16.7095 15.8477 16.7291 15.7245 16.7228H15.231" stroke="#6F6F85" stroke-width="1.5" stroke-linecap="round" stroke-linejoin="round"/>
<path d="M19.5319 18.873C18.5948 19.6747 17.407 20.1236 16.1739 20.1422C15.0084 20.1177 13.8837 19.7087 12.9746 18.9788" stroke="#6F6F85" stroke-width="1.5" stroke-linecap="round" stroke-linejoin="round"/>
</g>
<defs>
<clipPath id="clip0_5635_9023">
<rect width="26" height="26" fill="white" transform="translate(3.5 3)"/>
</clipPath>
</defs>
</svg>
