<svg width="36" height="36" viewBox="0 0 36 36" fill="none" xmlns="http://www.w3.org/2000/svg">
<circle cx="18" cy="18" r="15" fill="#FE4864"/>
<path d="M16.2747 20.3504V20.5323H18.8462V20.3504C18.8681 18.8342 19.3956 18.1368 20.6703 17.4191C22.0989 16.6408 22.989 15.5694 23 13.9218C22.989 11.5162 20.956 10 17.989 10C15.2747 10 13.0769 11.3848 13 14.1038H15.7473C15.8242 12.7493 16.8791 12.1024 17.967 12.1024C19.1648 12.1024 20.1319 12.8302 20.1209 13.9623C20.1319 14.973 19.4066 15.6503 18.4725 16.2062C17.0879 16.9845 16.2967 17.7729 16.2747 20.3504ZM15.9231 23.4232C15.9121 24.2925 16.6923 25 17.6374 25C18.5495 25 19.3297 24.2925 19.3297 23.4232C19.3297 22.5741 18.5495 21.8767 17.6374 21.8666C16.6923 21.8767 15.9121 22.5741 15.9231 23.4232Z" fill="white"/>
</svg>
