<svg width="48" height="48" viewBox="0 0 48 48" fill="none" xmlns="http://www.w3.org/2000/svg">
<path d="M24 46C36.1503 46 46 36.1503 46 24C46 11.8497 36.1503 2 24 2C11.8497 2 2 11.8497 2 24C2 36.1503 11.8497 46 24 46Z" fill="#FF5364"/>
<path d="M17.7143 25.1157H15.7186V23.3557H17.2901L15.9386 17.5729H18.5001L19.6943 23.3557H21.4858L22.8058 17.5729H25.1943L26.5143 23.3557H28.3058L29.5001 17.5729H32.0458L30.6786 23.3557H32.2501V25.1157H30.2858L28.9186 30.8986H26.2001L24.8801 25.1157H23.1201L21.8001 30.8986H19.1129L17.7143 25.1157ZM20.4958 27.1429H20.6058L21.0772 25.0529H20.0558L20.4958 27.1429ZM24.4715 23.2929L24.0001 21.4386L23.5758 23.3557L24.4715 23.2929ZM27.3943 27.1586H27.5043L27.9443 25.0529H26.9229L27.3943 27.1586Z" fill="white"/>
</svg>
