<svg width="48" height="48" viewBox="0 0 48 48" fill="none" xmlns="http://www.w3.org/2000/svg">
<circle cx="24" cy="24" r="24" fill="#FE4864"/>
<path d="M38 23.6645C38 22.7617 37.2619 22.0235 36.359 22.0235H30.4113C29.5085 22.0235 29.2935 21.502 29.9309 20.863L34.137 16.6569C34.7745 16.0194 34.7745 14.9747 34.137 14.3373L33.6628 13.863C33.0253 13.2255 31.9806 13.2255 31.3431 13.863L27.137 18.0691C26.4996 18.7065 25.9765 18.4915 25.9765 17.5887V11.641C25.9765 10.7381 25.2383 10 24.3355 10H23.6645C22.7617 10 22.0235 10.7381 22.0235 11.641V17.5887C22.0235 18.4915 21.502 18.7065 20.863 18.0691L16.6569 13.863C16.0194 13.2255 14.9747 13.2255 14.3372 13.863L13.863 14.3373C13.2255 14.9747 13.2255 16.0194 13.863 16.6569L18.0691 20.863C18.7065 21.5004 18.4915 22.0235 17.5887 22.0235H11.641C10.7381 22.0235 10 22.7617 10 23.6645V24.3355C10 25.2383 10.7381 25.9765 11.641 25.9765H17.5887C18.4915 25.9765 18.7065 26.498 18.0691 27.137L13.863 31.3431C13.2255 31.9806 13.2255 33.0253 13.863 33.6627L14.3372 34.137C14.9747 34.7745 16.0194 34.7745 16.6569 34.137L20.863 29.9309C21.5004 29.2935 22.0235 29.5085 22.0235 30.4113V36.359C22.0235 37.2619 22.7617 38 23.6645 38H24.3355C25.2383 38 25.9765 37.2619 25.9765 36.359V30.4113C25.9765 29.5085 26.498 29.2935 27.137 29.9309L31.3431 34.137C31.9806 34.7745 33.0253 34.7745 33.6628 34.137L34.137 33.6627C34.7745 33.0253 34.7745 31.9806 34.137 31.3431L29.9309 27.137C29.2935 26.4996 29.5085 25.9765 30.4113 25.9765H36.359C37.2619 25.9765 38 25.2383 38 24.3355V23.6645Z" fill="white"/>
</svg>