<svg width="32" height="32" viewBox="0 0 32 32" fill="none" xmlns="http://www.w3.org/2000/svg">
<path d="M18.5338 1.33331H5.49677L2.39827 13.2116H2.40651C2.25811 13.8064 2.12346 14.418 2.01216 15.0575L1.73735 16.687C1.48097 18.0213 1.34574 19.3767 1.33337 20.7362C1.33337 23.5009 1.98835 25.6679 3.29828 27.2374C5.21188 29.5226 8.60122 30.6657 13.4663 30.6666C18.3314 30.6676 22.1086 29.5245 24.7981 27.2374C27.4839 24.9512 29.2304 21.4362 30.0374 16.6925L30.3122 15.0631C30.5377 13.8663 30.6559 12.6512 30.6653 11.4327C30.6699 4.69977 26.6261 1.33331 18.5338 1.33331Z" fill="#8B8EA2"/>
<path d="M14.9688 12.0117H13.7773V20.8984H14.9688V12.0117ZM7.3418 15.8593C7.3418 17.8564 8.09863 19.0917 9.27539 19.0917C10.3691 19.0917 11.1162 18.0322 11.2236 16.289H11.9414V20.4882H13.1133V12.1386H11.9414V15.3027H11.2139C11.0771 13.6425 10.3447 12.6415 9.27539 12.6464C8.09863 12.6415 7.3418 13.872 7.3418 15.8593ZM8.49414 15.8593C8.48438 14.497 8.77734 13.8183 9.27539 13.8183C9.78809 13.8183 10.0908 14.497 10.0859 15.8593C10.0908 17.2265 9.78809 17.9003 9.27539 17.8906C8.77734 17.9003 8.48438 17.2265 8.49414 15.8593ZM23.1477 12.0117H21.8977V17.9296H23.1477V12.0117ZM15.843 14.7265C15.843 16.0058 16.8879 16.9091 18.2746 16.9042C19.6564 16.9091 20.7014 16.0058 20.7063 14.7265C20.7014 13.4521 19.6564 12.5585 18.2746 12.5585C16.8879 12.5585 15.843 13.4521 15.843 14.7265ZM16.634 19.8828L17.1223 20.8691C18.548 20.6347 19.5783 19.9999 20.1154 19.1357C20.6428 20.0048 21.673 20.6347 23.1086 20.8691L23.5969 19.8828C21.6975 19.6191 20.7648 18.6474 20.7746 17.6562V17.4706H19.466V17.6562C19.466 18.6523 18.5285 19.6288 16.634 19.8828ZM17.0637 14.7265C17.0539 14.0234 17.5617 13.6181 18.2746 13.623C18.968 13.6181 19.4709 14.0234 19.4758 14.7265C19.4709 15.4296 18.968 15.8495 18.2746 15.8495C17.5617 15.8495 17.0539 15.4296 17.0637 14.7265Z" fill="#E5E7F2"/>
</svg>
