<svg width="32" height="32" viewBox="0 0 32 32" fill="none" xmlns="http://www.w3.org/2000/svg">
<path d="M18.5338 1.33325H5.49677L2.39827 13.2115H2.40651C2.25811 13.8063 2.12346 14.4179 2.01216 15.0574L1.73735 16.6869C1.48097 18.0212 1.34574 19.3767 1.33337 20.7361C1.33337 23.5008 1.98835 25.6679 3.29828 27.2373C5.21188 29.5226 8.60122 30.6657 13.4663 30.6666C18.3314 30.6675 22.1086 29.5244 24.7981 27.2373C27.4839 24.9511 29.2304 21.4362 30.0374 16.6925L30.3122 15.063C30.5377 13.8662 30.6559 12.6511 30.6653 11.4326C30.6699 4.69971 26.6261 1.33325 18.5338 1.33325Z" fill="#FE4864"/>
<path d="M14.9688 12.0117H13.7773V20.8984H14.9688V12.0117ZM7.3418 15.8594C7.3418 17.8564 8.09863 19.0918 9.27539 19.0918C10.3691 19.0918 11.1162 18.0322 11.2236 16.2891H11.9414V20.4883H13.1133V12.1387H11.9414V15.3027H11.2139C11.0771 13.6426 10.3447 12.6416 9.27539 12.6465C8.09863 12.6416 7.3418 13.8721 7.3418 15.8594ZM8.49414 15.8594C8.48438 14.4971 8.77734 13.8184 9.27539 13.8184C9.78809 13.8184 10.0908 14.4971 10.0859 15.8594C10.0908 17.2266 9.78809 17.9004 9.27539 17.8906C8.77734 17.9004 8.48438 17.2266 8.49414 15.8594ZM23.1477 12.0117H21.8977V17.9297H23.1477V12.0117ZM15.843 14.7266C15.843 16.0059 16.8879 16.9092 18.2746 16.9043C19.6564 16.9092 20.7014 16.0059 20.7063 14.7266C20.7014 13.4521 19.6564 12.5586 18.2746 12.5586C16.8879 12.5586 15.843 13.4521 15.843 14.7266ZM16.634 19.8828L17.1223 20.8691C18.548 20.6348 19.5783 20 20.1154 19.1357C20.6428 20.0049 21.673 20.6348 23.1086 20.8691L23.5969 19.8828C21.6975 19.6191 20.7648 18.6475 20.7746 17.6562V17.4707H19.466V17.6562C19.466 18.6523 18.5285 19.6289 16.634 19.8828ZM17.0637 14.7266C17.0539 14.0234 17.5617 13.6182 18.2746 13.623C18.968 13.6182 19.4709 14.0234 19.4758 14.7266C19.4709 15.4297 18.968 15.8496 18.2746 15.8496C17.5617 15.8496 17.0539 15.4297 17.0637 14.7266Z" fill="white"/>
</svg>
