<svg width="24" height="24" viewBox="0 0 24 24" fill="none" xmlns="http://www.w3.org/2000/svg">
<path d="M13.9003 1H4.12255L1.79867 9.9087H1.80485C1.69355 10.3548 1.59256 10.8135 1.50909 11.2931L1.30298 12.5152C1.11069 13.516 1.00927 14.5326 1 15.5522C1 17.6257 1.49123 19.251 2.47368 20.428C3.90888 22.142 6.45088 22.9993 10.0997 23C13.7485 23.0007 16.5815 22.1434 18.5986 20.428C20.6129 18.7134 21.9228 16.0772 22.528 12.5194L22.7341 11.2973C22.9032 10.3997 22.9919 9.4884 22.999 8.57454C23.0024 3.52485 19.9695 1 13.9003 1Z" fill="#9859FF"/>
<path d="M7.86719 9.64062V8.96875H6.96875V9.64062C6.97266 10.5977 6.38281 11.5352 5.24219 11.9219L5.67969 12.6016C6.51562 12.3164 7.10938 11.7266 7.42578 10.9844C7.74609 11.6758 8.32812 12.2148 9.14062 12.4844L9.57031 11.7969C8.44922 11.4453 7.86328 10.5703 7.86719 9.64062ZM6.29688 13.875H10.2422V15.6953H11.1172V13.1797H6.29688V13.875ZM10.2422 12.8594H11.1172V8.63281H10.2422V12.8594ZM15.7969 9.60156V9.07812H14.875V9.60156C14.8711 10.6875 13.8008 11.7812 12.3438 12.0469L12.7266 12.7734C13.9062 12.5234 14.875 11.8008 15.3398 10.8594C15.8008 11.8086 16.7695 12.5273 17.9531 12.7734L18.3438 12.0469C16.8633 11.7891 15.7969 10.6914 15.7969 9.60156ZM12.1484 14.7969H18.6016V14.0781H12.1484V14.7969Z" fill="white"/>
</svg>
