<svg width="32" height="32" viewBox="0 0 32 32" fill="none" xmlns="http://www.w3.org/2000/svg">
<path d="M18.5338 1.33325H5.49677L2.39827 13.2115H2.40651C2.25811 13.8063 2.12346 14.4179 2.01216 15.0574L1.73735 16.6869C1.48097 18.0212 1.34574 19.3767 1.33337 20.7361C1.33337 23.5008 1.98835 25.6679 3.29828 27.2373C5.21188 29.5226 8.60122 30.6657 13.4663 30.6666C18.3314 30.6675 22.1086 29.5244 24.7981 27.2373C27.4839 24.9511 29.2304 21.4362 30.0374 16.6925L30.3122 15.063C30.5377 13.8662 30.6559 12.6511 30.6653 11.4326C30.6699 4.69971 26.6261 1.33325 18.5338 1.33325Z" fill="#9859FF"/>
<path d="M10.6719 13.2715V12.4219H9.37305V13.2715C9.37305 14.4043 8.71875 15.5615 7.23438 16.0352L7.85938 17.0117C8.9043 16.6748 9.62695 15.9814 10.0273 15.1074C10.4229 15.918 11.126 16.5527 12.1367 16.875L12.7617 15.8984C11.2969 15.459 10.6621 14.3799 10.6719 13.2715ZM8.5918 18.6914H13.4551V20.8984H14.7051V17.6953H8.5918V18.6914ZM13.4551 17.3145H14.7051V12.0117H13.4551V17.3145ZM20.384 13.1836V12.5391H19.0559V13.1836C19.0461 14.4727 17.8889 15.8691 15.9113 16.2207L16.4484 17.2559C17.9865 16.9434 19.1389 16.0645 19.7248 14.9365C20.301 16.0742 21.4484 16.9482 23.0012 17.2559L23.548 16.2207C21.5363 15.8789 20.3791 14.4873 20.384 13.1836ZM15.7063 19.8047H23.841V18.7793H15.7063V19.8047Z" fill="white"/>
</svg>
