<svg width="32" height="32" viewBox="0 0 32 32" fill="none" xmlns="http://www.w3.org/2000/svg">
<path d="M18.2004 1.33325H5.1634L2.06489 13.2115H2.07314C1.92474 13.8063 1.79008 14.4179 1.67878 15.0574L1.40397 16.6869C1.14759 18.0212 1.01237 19.3767 1 20.7361C1 23.5008 1.65497 25.6679 2.96491 27.2373C4.87851 29.5226 8.26785 30.6657 13.1329 30.6666C17.998 30.6675 21.7753 29.5244 24.4648 27.2373C27.1506 24.9511 28.897 21.4362 29.704 16.6925L29.9788 15.063C30.2043 13.8662 30.3225 12.6511 30.332 11.4326C30.3365 4.69971 26.2927 1.33325 18.2004 1.33325Z" fill="#3577F6"/>
<path d="M19.5771 18.8672H16.1006V17.2656H18.8545V16.2891H17.6436V13.75H18.8936V12.7539H12.0771V13.75H13.3076V16.2891H12.1162V17.2656H14.8604V18.8672H11.4424V19.9121H19.5771V18.8672ZM14.5576 16.2891V13.75H16.4131V16.2891H14.5576Z" fill="white"/>
</svg>
