<svg width="33" height="32" viewBox="0 0 33 32" fill="none" xmlns="http://www.w3.org/2000/svg">
<g clip-path="url(#clip0_4716_55778)">
<g clip-path="url(#clip1_4716_55778)">
<path d="M32.2139 25.13H0.213867V7H25.6239H32.2139V25.13Z" fill="#BCDCDD"/>
<g clip-path="url(#clip2_4716_55778)">
<path d="M6.21387 25.1328H0.213867V19.1328L6.21387 25.1328Z" fill="#FF5364"/>
</g>
<g clip-path="url(#clip3_4716_55778)">
<path d="M26.2139 7H32.2139V13L26.2139 7Z" fill="#FF5364"/>
</g>
<g clip-path="url(#clip4_4716_55778)">
<path d="M16.5688 15.52V16.29H15.9088V15.52C15.5823 15.4608 15.2875 15.2875 15.0769 15.0311C14.8662 14.7747 14.7535 14.4518 14.7588 14.12H15.3888C15.3901 14.2246 15.4122 14.3279 15.4537 14.4239C15.4953 14.5199 15.5555 14.6067 15.6308 14.6793C15.7062 14.7519 15.7952 14.8087 15.8927 14.8466C15.9902 14.8845 16.0943 14.9027 16.1988 14.9C16.3 14.8988 16.3998 14.8772 16.4923 14.8364C16.5848 14.7956 16.6682 14.7366 16.7373 14.6628C16.8064 14.589 16.8599 14.502 16.8945 14.407C16.9292 14.312 16.9442 14.211 16.9388 14.11C16.9388 13.58 16.4988 13.42 16.0588 13.31C15.8876 13.2896 15.7223 13.2347 15.5728 13.1488C15.4233 13.0629 15.2927 12.9476 15.1888 12.81C15.0439 12.5826 14.9643 12.3196 14.9588 12.05C14.9496 11.7619 15.0386 11.4793 15.2112 11.2485C15.3839 11.0177 15.6299 10.8525 15.9088 10.78V10H16.5688V10.78C16.8532 10.8238 17.1117 10.9699 17.2958 11.1908C17.48 11.4118 17.5771 11.6925 17.5688 11.98H16.9188C16.9136 11.8226 16.8467 11.6736 16.7326 11.5651C16.6185 11.4566 16.4663 11.3973 16.3088 11.4C16.2215 11.3956 16.1341 11.4097 16.0526 11.4414C15.9711 11.4732 15.8972 11.5218 15.8358 11.5842C15.7744 11.6465 15.7269 11.7211 15.6964 11.8031C15.6659 11.8852 15.6531 11.9727 15.6588 12.06C15.6588 12.57 16.0488 12.62 16.4788 12.74C16.6643 12.7674 16.8423 12.832 17.0021 12.93C17.1619 13.0279 17.3003 13.1572 17.4088 13.31C17.5647 13.5546 17.6448 13.84 17.6388 14.13C17.6455 14.4489 17.5431 14.7606 17.3485 15.0134C17.1539 15.2661 16.8789 15.4449 16.5688 15.52Z" fill="#03AA6F"/>
</g>
<g clip-path="url(#clip5_4716_55778)">
<path d="M23.2139 18H9.21387V18.8119H23.2139V18Z" fill="#80BEB2"/>
<path d="M23.2139 20.198H9.21387V21.0099H23.2139V20.198Z" fill="#80BEB2"/>
</g>
</g>
<g clip-path="url(#clip6_4716_55778)">
<path d="M24.1638 23.48V31.15L26.2138 29.69L28.2638 31.15V23.48H24.1638Z" fill="#FF5364"/>
<path d="M26.2138 16.7261L27.4038 18.1061L29.1838 17.6961L29.3438 19.5061L31.0238 20.2161L30.0738 21.7761L31.0238 23.3461L29.3438 24.0561L29.1838 25.8661L27.4038 25.4561L26.2138 26.8361L25.0138 25.4561L23.2438 25.8661L23.0838 24.0561L21.4038 23.3461L22.3438 21.7761L21.4038 20.2161L23.0838 19.5061L23.2438 17.6961L25.0138 18.1061L26.2138 16.7261Z" fill="#FF5364"/>
<path d="M26.2136 23.8339C27.3458 23.8339 28.2636 22.9161 28.2636 21.7839C28.2636 20.6517 27.3458 19.7339 26.2136 19.7339C25.0814 19.7339 24.1636 20.6517 24.1636 21.7839C24.1636 22.9161 25.0814 23.8339 26.2136 23.8339Z" fill="white"/>
</g>
</g>
<defs>
<clipPath id="clip0_4716_55778">
<rect width="32" height="32" fill="white" transform="translate(0.213867)"/>
</clipPath>
<clipPath id="clip1_4716_55778">
<rect width="32" height="18.13" fill="white" transform="translate(0.213867 7)"/>
</clipPath>
<clipPath id="clip2_4716_55778">
<rect width="6" height="6" fill="white" transform="translate(0.213867 19.1328)"/>
</clipPath>
<clipPath id="clip3_4716_55778">
<rect width="6" height="6" fill="white" transform="translate(26.2139 7)"/>
</clipPath>
<clipPath id="clip4_4716_55778">
<rect width="2.91" height="6.29" fill="white" transform="translate(14.7588 10)"/>
</clipPath>
<clipPath id="clip5_4716_55778">
<rect width="14" height="3" fill="white" transform="translate(9.21387 18)"/>
</clipPath>
<clipPath id="clip6_4716_55778">
<rect width="9.62" height="15.15" fill="white" transform="translate(21.4038 16)"/>
</clipPath>
</defs>
</svg>
