<svg width="24" height="24" viewBox="0 0 24 24" fill="none" xmlns="http://www.w3.org/2000/svg">
<path d="M12.5546 3.56251C11.1524 3.56049 9.77529 3.93407 8.56604 4.6445C7.3568 5.35492 6.35954 6.37629 5.67775 7.60262C4.99596 8.82896 4.65449 10.2156 4.68878 11.6185C4.72307 13.0215 5.13185 14.3897 5.87273 15.5812L3.5625 20.4375L8.41376 18.1245C9.44836 18.7686 10.6183 19.1634 11.8313 19.2778C13.0443 19.3921 14.2673 19.223 15.404 18.7838C16.5405 18.3444 17.5596 17.6469 18.381 16.7461C19.2023 15.8454 19.8035 14.7661 20.137 13.5932C20.4705 12.4203 20.5273 11.186 20.303 9.98731C20.0786 8.7887 19.5791 7.65861 18.8441 6.68612C18.1089 5.71362 17.1581 4.92528 16.0667 4.38323C14.9753 3.84118 13.773 3.56023 12.5546 3.56251Z" stroke="#FFFFFF" stroke-width="2" stroke-linecap="round" stroke-linejoin="round"/>
<path d="M12.5625 15.8125C12.4072 15.8125 12.2812 15.6866 12.2812 15.5312C12.2812 15.3759 12.4072 15.25 12.5625 15.25" stroke="#FFFFFF" stroke-width="2"/>
<path d="M12.5625 15.8125C12.7178 15.8125 12.8438 15.6866 12.8438 15.5312C12.8438 15.3759 12.7178 15.25 12.5625 15.25" stroke="#FFFFFF" stroke-width="2"/>
<path d="M10.3125 10.3125C10.3125 9.86749 10.4445 9.43248 10.6917 9.06247C10.9389 8.69245 11.2904 8.40407 11.7014 8.23377C12.1126 8.06347 12.565 8.01892 13.0015 8.10574C13.4379 8.19255 13.8388 8.40684 14.1535 8.72151C14.4682 9.03618 14.6824 9.43709 14.7693 9.87355C14.8561 10.31 14.8115 10.7624 14.6412 11.1736C14.4709 11.5846 14.1826 11.9361 13.8125 12.1833C13.4426 12.4306 13.0075 12.5625 12.5625 12.5625" stroke="#FFFFFF" stroke-width="2" stroke-linecap="round" stroke-linejoin="round"/>
</svg>
