<svg width="56" height="56" viewBox="0 0 56 56" fill="none" xmlns="http://www.w3.org/2000/svg">
<path d="M49 5H7V25.9664H49V5Z" fill="#AEB7D3"/>
<path d="M43 14H12V18H43V14Z" fill="#6F85B2"/>
<path d="M39 14H17V49H39V14Z" fill="#8DEE7D"/>
<path d="M28 37.0268C32.4183 37.0268 36 33.439 36 29.0134C36 24.5877 32.4183 21 28 21C23.5817 21 20 24.5877 20 29.0134C20 33.439 23.5817 37.0268 28 37.0268Z" fill="#4DDB68"/>
<path d="M29.0064 30.7439C29.0139 30.6275 28.9979 30.5108 28.9593 30.4008C28.9206 30.2908 28.8602 30.1898 28.7816 30.1037C28.5678 29.8989 28.3081 29.7484 28.0242 29.6651C27.6692 29.5229 27.3615 29.3925 27.1011 29.2621C26.8633 29.1385 26.6409 28.9873 26.4384 28.8116C26.2598 28.6341 26.1153 28.4252 26.0123 28.1952C25.9012 27.9374 25.8487 27.658 25.8585 27.3773C25.8493 27.1256 25.8918 26.8748 25.9834 26.6403C26.075 26.4058 26.2138 26.1926 26.391 26.0141C26.7677 25.6475 27.2633 25.4287 27.7875 25.3977V24.3545H28.6159V25.4095C29.1416 25.468 29.6247 25.7269 29.965 26.1326C30.3046 26.5767 30.4764 27.1267 30.4502 27.6855H29.0064C29.0286 27.373 28.9406 27.0626 28.7579 26.8083C28.6808 26.7144 28.5829 26.6398 28.4719 26.5904C28.361 26.541 28.2401 26.5182 28.1189 26.5238C28.0044 26.5158 27.8896 26.5317 27.7816 26.5705C27.6737 26.6092 27.5749 26.67 27.4916 26.749C27.3412 26.9224 27.2648 27.148 27.2786 27.3773C27.2685 27.5989 27.3449 27.8157 27.4916 27.9819C27.7243 28.182 27.9936 28.335 28.2845 28.4323C28.6751 28.5983 28.9946 28.7405 29.255 28.8828C29.4834 29.0086 29.6943 29.1641 29.8822 29.3451C30.0546 29.5182 30.1914 29.7236 30.2845 29.9496C30.3795 30.1991 30.4238 30.4651 30.4147 30.732C30.4261 30.9801 30.3869 31.2279 30.2994 31.4602C30.2119 31.6926 30.078 31.9046 29.9058 32.0834C29.5117 32.4449 29.007 32.6621 28.4739 32.6998V33.6718H27.6928V32.6998C27.1058 32.6639 26.5531 32.4103 26.1425 31.9885C25.769 31.5546 25.5706 30.9966 25.5863 30.4238H27.0064C26.9875 30.7469 27.084 31.0663 27.2786 31.3247C27.3812 31.4297 27.5051 31.5115 27.6418 31.5647C27.7786 31.6178 27.9251 31.6411 28.0715 31.6329C28.3201 31.6444 28.5643 31.5643 28.7579 31.4077C28.8464 31.3228 28.9147 31.2191 28.9577 31.1041C29.0007 30.9892 29.0174 30.8661 29.0064 30.7439Z" fill="#00B55E"/>
<path d="M28 10.7518L30.8824 7.7959H25.1177L28 10.7518Z" fill="#6F85B2"/>
</svg>
