<svg width="56" height="56" viewBox="0 0 56 56" fill="none" xmlns="http://www.w3.org/2000/svg">
<g clip-path="url(#clip0_6827_87113)">
<path d="M37.9973 9.3043L33.7635 6L29.4017 9.44198L25.0981 6.06884V6.04589L20.8992 9.3043L16.6654 6L12.3036 9.44198L8 6.06884V47.6939H25.0981H42.1962V6.04589L37.9973 9.3043Z" fill="#DAE0FF"/>
<path d="M18.1192 24.4258C18.1278 24.2734 18.1055 24.1208 18.0536 23.9769C18.0016 23.8331 17.9211 23.701 17.8168 23.5882C17.5302 23.3293 17.1884 23.1372 16.8165 23.0261C16.3512 22.8425 15.9441 22.6704 15.6533 22.4983C15.3353 22.3413 15.0416 22.1404 14.781 21.9017C14.5359 21.6809 14.3416 21.411 14.211 21.11C14.0626 20.7698 13.9911 20.4018 14.0017 20.0315C13.9746 19.71 14.0165 19.3865 14.1247 19.082C14.2329 18.7776 14.405 18.4991 14.6298 18.2646C15.1321 17.785 15.7927 17.4998 16.4908 17.4615V16.1191H17.526V17.5074C18.225 17.5856 18.8666 17.9267 19.3172 18.4597C19.7691 19.0359 19.9998 19.7512 19.9686 20.479H18.1192C18.1495 20.0708 18.0343 19.665 17.7935 19.3317C17.6894 19.2073 17.5575 19.1083 17.4082 19.0426C17.2589 18.977 17.0961 18.9463 16.9328 18.953C16.7835 18.9446 16.6341 18.9667 16.494 19.018C16.3539 19.0694 16.226 19.1488 16.1186 19.2513C16.0156 19.3627 15.936 19.493 15.8841 19.6347C15.8322 19.7764 15.8091 19.9269 15.8162 20.0774C15.8108 20.3642 15.9146 20.6425 16.1069 20.8576C16.4177 21.1216 16.7771 21.3241 17.1654 21.4542C17.6026 21.6255 18.0298 21.8209 18.4449 22.0393C18.7528 22.2004 19.035 22.4053 19.2823 22.6474C19.5092 22.8693 19.6874 23.1349 19.8057 23.4276C19.9375 23.752 20.0008 24.0994 19.9918 24.4487C19.9958 24.7695 19.9351 25.0878 19.8133 25.3852C19.6915 25.6826 19.511 25.9532 19.2823 26.1812C18.7606 26.6527 18.0923 26.9358 17.3864 26.9843V28.2464H16.3745V26.9843C15.9868 26.9761 15.6049 26.89 15.2522 26.7311C14.8994 26.5723 14.5833 26.3441 14.323 26.0606C14.0628 25.777 13.864 25.444 13.7387 25.0821C13.6135 24.7201 13.5644 24.3367 13.5946 23.9554H15.4672C15.4438 24.3681 15.5718 24.7754 15.8278 25.1027C15.9646 25.2408 16.1299 25.3481 16.3126 25.4174C16.4953 25.4867 16.6909 25.5164 16.8863 25.5043C17.2124 25.5213 17.5329 25.4145 17.7819 25.206C17.8915 25.1074 17.9783 24.9867 18.0365 24.8521C18.0947 24.7175 18.1229 24.5721 18.1192 24.4258Z" fill="#7989A5"/>
<path d="M37.9043 20.6396H21.7251V22.1656H37.9043V20.6396Z" fill="#7989A5"/>
<path d="M37.9043 24.4492H21.7251V25.9752H37.9043V24.4492Z" fill="#7989A5"/>
<path d="M45.8366 37.0234H26.0982C25.4558 37.0234 24.9351 37.5371 24.9351 38.1708V42.1864C24.9351 42.8201 25.4558 43.3337 26.0982 43.3337H45.8366C46.479 43.3337 46.9998 42.8201 46.9998 42.1864V38.1708C46.9998 37.5371 46.479 37.0234 45.8366 37.0234Z" fill="#FFE461"/>
<path d="M45.8366 43.7012H26.0982C25.4558 43.7012 24.9351 44.2148 24.9351 44.8485V48.8641C24.9351 49.4978 25.4558 50.0115 26.0982 50.0115H45.8366C46.479 50.0115 46.9998 49.4978 46.9998 48.8641V44.8485C46.9998 44.2148 46.479 43.7012 45.8366 43.7012Z" fill="#FFE461"/>
<path d="M45.8366 30.3467H26.0982C25.4558 30.3467 24.9351 30.8604 24.9351 31.494V35.5097C24.9351 36.1433 25.4558 36.657 26.0982 36.657H45.8366C46.479 36.657 46.9998 36.1433 46.9998 35.5097V31.494C46.9998 30.8604 46.479 30.3467 45.8366 30.3467Z" fill="#FFE461"/>
<path d="M45.6626 36.6562H25.9707V37.0234H45.6626V36.6562Z" fill="#D6AD00"/>
<path d="M45.6626 43.334H25.9707V43.7011H45.6626V43.334Z" fill="#D6AD00"/>
</g>
<defs>
<clipPath id="clip0_6827_87113">
<rect width="39" height="44" fill="white" transform="translate(8 6)"/>
</clipPath>
</defs>
</svg>
