<svg width="132" height="90" viewBox="0 0 132 90" fill="none" xmlns="http://www.w3.org/2000/svg">
<defs>
<linearGradient id="paint0_linear_10402_121316" x1="19" y1="110" x2="118.382" y2="110" gradientUnits="userSpaceOnUse">
<stop offset="0.228751" stop-color="#4F6BFF"/>
<stop offset="0.228851" stop-color="#516BFD"/>
<stop offset="0.228951" stop-color="#526BFC"/>
<stop offset="0.749615" stop-color="#FF766D"/>
</linearGradient>
<clipPath id="clip0_10402_121316">
<rect width="132" height="90" fill="white"/>
</clipPath>
</defs>
<g clip-path="url(#clip0_10402_121316)">
<mask id="path-1-inside-1_10402_121316" fill="white">
<path d="M110.103 63C111.703 63 113.009 61.7013 112.911 60.1042C112.207 48.6956 107.363 37.8952 99.234 29.766C90.4198 20.9518 78.4652 16 66 16C53.5348 16 41.5802 20.9518 32.766 29.766C24.6368 37.8952 19.793 48.6956 19.0892 60.1042C18.9907 61.7013 20.2971 63 21.8972 63V63C23.4973 63 24.7839 61.7011 24.8962 60.1049C25.591 50.2345 29.821 40.9056 36.8633 33.8633C44.5908 26.1358 55.0716 21.7945 66 21.7945C76.9284 21.7945 87.4092 26.1358 95.1367 33.8633C102.179 40.9056 106.409 50.2345 107.104 60.1049C107.216 61.7011 108.503 63 110.103 63V63Z"/>
</mask>
<path d="M110.103 63C111.703 63 113.009 61.7013 112.911 60.1042C112.207 48.6956 107.363 37.8952 99.234 29.766C90.4198 20.9518 78.4652 16 66 16C53.5348 16 41.5802 20.9518 32.766 29.766C24.6368 37.8952 19.793 48.6956 19.0892 60.1042C18.9907 61.7013 20.2971 63 21.8972 63V63C23.4973 63 24.7839 61.7011 24.8962 60.1049C25.591 50.2345 29.821 40.9056 36.8633 33.8633C44.5908 26.1358 55.0716 21.7945 66 21.7945C76.9284 21.7945 87.4092 26.1358 95.1367 33.8633C102.179 40.9056 106.409 50.2345 107.104 60.1049C107.216 61.7011 108.503 63 110.103 63V63Z" stroke="url(#paint0_linear_10402_121316)" stroke-width="8" mask="url(#path-1-inside-1_10402_121316)"/>
<circle cx="66" cy="59" r="3.5" fill="#FE4864" stroke="#FE4864"/>
<line x1="66" y1="59.4964" x2="80.4669" y2="45.0294" stroke="#FE4864" stroke-width="3" stroke-linecap="round"/>
</g>

</svg>
