<svg width="32" height="32" viewBox="0 0 32 32" fill="none" xmlns="http://www.w3.org/2000/svg">
<path d="M18.7 22.6499C18.7 23.366 18.4156 24.0527 17.9092 24.5591C17.4029 25.0654 16.7161 25.3499 16 25.3499C15.284 25.3499 14.5972 25.0654 14.0909 24.5591C13.5845 24.0527 13.3 23.366 13.3 22.6499" fill="#D5D8E8"/>
<path d="M23 20.02H9V21.52H23V20.02Z" fill="#D5D8E8"/>
<path d="M22 21.53H10V13C10 11.4087 10.6321 9.88258 11.7574 8.75736C12.8826 7.63214 14.4087 7 16 7C17.5913 7 19.1174 7.63214 20.2426 8.75736C21.3679 9.88258 22 11.4087 22 13V21.53Z" fill="#D5D8E8"/>
</svg>
