<svg width="48" height="48" viewBox="0 0 48 48" fill="none" xmlns="http://www.w3.org/2000/svg">
<circle cx="24" cy="24" r="24" fill="#9859FF"/>
<path d="M25.703 10.245C24.7655 8.58499 23.2311 8.58499 22.2935 10.245C22.2935 10.245 20.3583 13.6717 17.0141 17.0159C13.67 20.36 10.245 22.2952 10.245 22.2952C8.58499 23.2328 8.58499 24.7672 10.245 25.7048C10.245 25.7048 13.6717 27.64 17.0159 30.9841C20.36 34.3283 22.2952 37.755 22.2952 37.755C23.2328 39.415 24.7672 39.415 25.7048 37.755C25.7048 37.755 27.64 34.3283 30.9841 30.9841C34.3283 27.64 37.755 25.7048 37.755 25.7048C39.415 24.7672 39.415 23.2328 37.755 22.2952C37.755 22.2952 34.3283 20.36 30.9841 17.0159C27.64 13.6717 25.7048 10.245 25.7048 10.245H25.703Z" fill="white"/>
</svg>
