<svg width="48" height="48" viewBox="0 0 48 48" fill="none" xmlns="http://www.w3.org/2000/svg">
<circle cx="24" cy="24" r="24" fill="#FE4864"/>
<path d="M21.6665 12.1969C22.7434 13.8074 24.5066 13.8074 25.5835 12.1969L27.0216 10.0472C28.0985 8.43663 28.9379 8.71504 28.8846 10.6674L28.8141 13.2717C28.7608 15.2241 30.1868 16.2848 31.9827 15.6311L34.379 14.7571C36.175 14.1034 36.6927 14.8329 35.5299 16.38L33.9782 18.4434C32.8153 19.9904 33.3607 21.7084 35.1893 22.26L37.6285 22.9965C39.4572 23.548 39.4572 24.4502 37.6285 25.0035L35.1893 25.74C33.3607 26.2916 32.8153 28.0096 33.9782 29.5566L35.5299 31.62C36.6927 33.1671 36.175 33.8984 34.379 33.2429L31.9827 32.3689C30.1868 31.7152 28.7608 32.7759 28.8141 34.7283L28.8846 37.3326C28.9379 39.285 28.0985 39.5634 27.0216 37.9528L25.5835 35.8031C24.5066 34.1926 22.7434 34.1926 21.6665 35.8031L20.2284 37.9528C19.1515 39.5634 18.3121 39.285 18.3654 37.3326L18.4359 34.7283C18.4892 32.7759 17.0632 31.7152 15.2673 32.3689L12.871 33.2429C11.075 33.8966 10.5573 33.1671 11.7201 31.62L13.2718 29.5566C14.4347 28.0096 13.8893 26.2916 12.0607 25.74L9.62145 25.0035C7.79285 24.452 7.79285 23.5498 9.62145 22.9965L12.0607 22.26C13.8893 21.7084 14.4347 19.9904 13.2718 18.4434L11.7201 16.38C10.5573 14.8329 11.075 14.1016 12.871 14.7571L15.2673 15.6311C17.0632 16.2848 18.4892 15.2241 18.4359 13.2717L18.3654 10.6674C18.3121 8.71504 19.1515 8.43663 20.2284 10.0472L21.6665 12.1969Z" fill="white"/>
</svg>
