<svg width="48" height="48" viewBox="0 0 48 48" fill="none" xmlns="http://www.w3.org/2000/svg">
<circle cx="24" cy="24" r="24" fill="#A4A6B8"/>
<g clip-path="url(#clip0_6656_85322)">
<path d="M26.0696 11.9946H15.4034L12.8737 21.7221C12.7517 22.2087 12.6417 22.7088 12.5515 23.2331L12.3288 24.5675C12.1195 25.6579 12.009 26.7655 11.9987 27.8765C11.9987 30.14 12.5347 31.9138 13.6069 33.1978C15.1731 35.0704 17.9476 36.0059 21.9304 36.0041C25.9131 36.0023 29.0041 35.0669 31.2032 33.1978C33.4005 31.327 34.8288 28.4516 35.4882 24.5715L35.7109 23.2371C35.8956 22.2565 35.9924 21.2608 36 20.2624C36.0009 14.7551 32.6907 11.9991 26.0696 11.9946ZM28.2532 23.3962L28.0729 24.3949C27.7423 26.3493 27.1652 27.6896 26.3414 28.4156C25.5176 29.1417 24.4185 29.5051 23.0441 29.506C20.7371 29.506 19.5837 28.5284 19.5837 26.5731C19.5816 25.8438 19.6365 25.1154 19.7481 24.3949L19.9284 23.3948C20.4782 20.1824 22.1681 18.5484 24.9983 18.4927C27.2496 18.4927 28.3756 19.624 28.3765 21.8866C28.3719 22.3922 28.3307 22.8967 28.2532 23.3962Z" fill="white"/>
</g>
<defs>
<clipPath id="clip0_6656_85322">
<rect width="24" height="24" fill="white" transform="translate(12 12)"/>
</clipPath>
</defs>
</svg>
