<svg width="20" height="20" viewBox="0 0 20 20" fill="none" xmlns="http://www.w3.org/2000/svg">
<g clip-path="url(#clip0_3414_54809)">
<path d="M9.99994 2.5C5.58151 2.5 1.9939 5.389 1.9939 8.95478C1.9939 11.2672 3.50447 13.3083 5.78997 14.446C5.6223 15.0827 5.18574 16.7585 5.09511 17.1131C4.98634 17.557 5.25523 17.5509 5.43045 17.4322L8.509 15.297C9.00065 15.371 9.49694 15.4081 9.9939 15.408C14.4123 15.408 17.9999 12.519 17.9999 8.95478C17.9999 5.39054 14.4184 2.5 9.9939 2.5" fill="#371D1E"/>
<path d="M4.41855 7.7662H5.24332C5.24332 7.7662 5.24332 10.0786 5.24332 10.612C5.24332 11.0052 6.09982 11.0098 6.09831 10.612V7.78933C6.09831 7.78933 6.37323 7.78933 6.91704 7.78933C7.42913 7.78933 7.42913 6.96764 6.91704 6.96764C6.34 6.96764 4.41251 6.95068 4.41251 6.95068C3.92912 6.95068 3.93064 7.75695 4.41251 7.75695" fill="#FAE100"/>
<path d="M8.35954 7.91564L8.81271 9.38018H7.86256L8.35954 7.91564ZM7.84594 7.22961C7.64352 7.6921 6.91241 9.83496 6.6692 10.4054C6.49398 10.817 7.25077 11.1546 7.42449 10.7414L7.59065 10.1541H9.10123C9.10123 10.1541 9.04987 10.1772 9.25228 10.7168C9.41392 11.153 10.1964 10.8509 10.0348 10.4084C9.80364 9.79179 9.00304 7.54102 8.85651 7.22345C8.79005 7.06928 8.5544 6.97062 8.31422 6.97062C8.22143 6.96231 8.12827 6.98181 8.04617 7.02671C7.96407 7.07162 7.89659 7.13999 7.85198 7.22345" fill="#FAE100"/>
<path d="M10.3173 7.36382C10.3173 8.09455 10.3173 10.4471 10.3173 10.4471C10.3173 10.4471 10.2508 10.9095 10.6436 10.9095H12.3052C12.6919 10.9095 12.6889 10.0694 12.3052 10.0694C11.9215 10.0694 11.2115 10.0694 11.2115 10.0694C11.2115 10.0694 11.2115 7.89105 11.2115 7.36227C11.2084 7.3059 11.194 7.25077 11.1692 7.20032C11.1443 7.14987 11.1095 7.10519 11.067 7.06904C11.0245 7.03289 10.9752 7.00605 10.9221 6.99019C10.869 6.97434 10.8133 6.9698 10.7584 6.97687C10.5348 6.97687 10.3127 7.10637 10.3127 7.36382" fill="#FAE100"/>
<path d="M12.7916 7.24815C12.8007 7.56726 12.781 10.4655 12.7826 10.6813C12.7826 11.0205 13.627 11.019 13.627 10.6813V9.54208L13.8762 9.33859L14.9608 10.8494C15.1798 11.1454 15.8671 10.612 15.6511 10.316L14.4986 8.76664C14.4986 8.76664 15.281 7.90334 15.5892 7.59039C15.7705 7.40848 15.2131 6.83499 15.0333 7.01845C14.8535 7.2019 13.633 8.44599 13.633 8.44599C13.633 8.44599 13.6436 7.65976 13.633 7.22502C13.633 7.06007 13.4306 6.98145 13.2282 6.98145C13.0258 6.98145 12.7886 7.0724 12.7931 7.24969" fill="#FAE100"/>
</g>
<defs>
<clipPath id="clip0_3414_54809">
<rect width="16" height="15" fill="white" transform="translate(2 2.5)"/>
</clipPath>
</defs>
</svg>
