<svg width="24" height="24" viewBox="0 0 24 24" fill="none" xmlns="http://www.w3.org/2000/svg">
<path d="M13.9003 1H4.12255L1.79867 9.9087H1.80485C1.69355 10.3548 1.59256 10.8135 1.50909 11.2931L1.30298 12.5152C1.11069 13.516 1.00927 14.5326 1 15.5522C1 17.6257 1.49123 19.251 2.47368 20.428C3.90888 22.142 6.45088 22.9993 10.0997 23C13.7485 23.0007 16.5814 22.1434 18.5986 20.428C20.6129 18.7134 21.9227 16.0772 22.528 12.5194L22.7341 11.2973C22.9032 10.3997 22.9919 9.4884 22.999 8.57454C23.0024 3.52485 19.9695 1 13.9003 1Z" fill="#3577F6"/>
<path d="M14.6875 14.1484H11.8672V12.7578H14.1016V12.0703H13.0938V9.96094H14.125V9.25781H8.76562V9.96094H9.78125V12.0703H8.78906V12.7578H11.0078V14.1484H8.23438V14.875H14.6875V14.1484ZM10.6484 12.0703V9.96094H12.2344V12.0703H10.6484Z" fill="white"/>
</svg>
