<svg width="24" height="24" viewBox="0 0 24 24" fill="none" xmlns="http://www.w3.org/2000/svg">
<path d="M13.9003 1H4.12255L1.79867 9.9087H1.80485C1.69355 10.3548 1.59256 10.8135 1.50909 11.2931L1.30298 12.5152C1.11069 13.516 1.00927 14.5326 1 15.5522C1 17.6257 1.49123 19.251 2.47368 20.428C3.90888 22.142 6.45088 22.9993 10.0997 23C13.7485 23.0007 16.5814 22.1434 18.5986 20.428C20.6129 18.7134 21.9227 16.0772 22.528 12.5194L22.7341 11.2973C22.9032 10.3997 22.9919 9.4884 22.999 8.57454C23.0024 3.52485 19.9695 1 13.9003 1Z" fill="#FE4864"/>
<path d="M11.3281 8.63281H10.4922V15.6953H11.3281V8.63281ZM5.30469 11.6875C5.30469 13.2461 5.90625 14.2148 6.82812 14.2109C7.70312 14.2148 8.29297 13.3711 8.375 11.9922H9.04688V15.3516H9.875V8.75781H9.04688V11.2891H8.36719C8.26562 9.96875 7.68359 9.16797 6.82812 9.17188C5.90625 9.16797 5.30469 10.1328 5.30469 11.6875ZM6.10938 11.6875C6.10547 10.5859 6.37891 9.98828 6.82812 9.99219C7.29688 9.98828 7.57422 10.5859 7.57812 11.6875C7.57422 12.793 7.29688 13.3867 6.82812 13.3828C6.37891 13.3867 6.10547 12.793 6.10938 11.6875ZM18.0312 8.63281H17.1562V13.3438H18.0312V8.63281ZM12.2734 10.7812C12.2734 11.793 13.0859 12.5 14.1797 12.5C15.2695 12.5 16.082 11.793 16.0781 10.7812C16.082 9.78125 15.2695 9.08203 14.1797 9.07812C13.0859 9.08203 12.2734 9.78125 12.2734 10.7812ZM12.9062 14.9766L13.25 15.6641C14.3672 15.4727 15.2305 14.9531 15.6562 14.2227C16.0742 14.9531 16.9336 15.4727 18.0547 15.6641L18.3984 14.9766C16.9805 14.7617 16.1094 13.9961 16.1172 13.1406V12.9609H15.2031V13.1406C15.207 14.0039 14.332 14.7695 12.9062 14.9766ZM13.125 10.7812C13.1211 10.1914 13.5625 9.82422 14.1797 9.82031C14.7852 9.82422 15.2266 10.1914 15.2266 10.7812C15.2266 11.3828 14.7852 11.7578 14.1797 11.7578C13.5625 11.7578 13.1211 11.3828 13.125 10.7812Z" fill="white"/>
</svg>
