<svg width="20" height="20" viewBox="0 0 20 20" fill="none" xmlns="http://www.w3.org/2000/svg">
<g clip-path="url(#clip0_4002_53301)">
<path d="M9.99987 2.00001C8.58154 1.99789 7.1882 2.37333 5.96295 3.08779C4.7377 3.80225 3.72471 4.82996 3.028 6.06539C2.3313 7.30082 1.97599 8.69943 1.99857 10.1176C2.02115 11.5357 2.42081 12.9223 3.1565 14.1349L2.66494 17.8554L6.75168 17.306C7.84069 17.7918 9.02452 18.028 10.2166 17.9974C11.4086 17.9667 12.5788 17.6699 13.6413 17.1288C14.7039 16.5876 15.6321 15.8158 16.3579 14.8697C17.0838 13.9236 17.589 12.8272 17.8365 11.6607C18.0841 10.4943 18.0677 9.28722 17.7887 8.12788C17.5096 6.96854 16.9749 5.88625 16.2237 4.96018C15.4725 4.03411 14.5238 3.28768 13.4469 2.77551C12.3701 2.26334 11.1923 1.99838 9.99987 2.00001Z" fill="#2A8DE9"/>
<path d="M10.0002 6.79995C10.442 6.79995 10.8002 6.44178 10.8002 5.99995C10.8002 5.55812 10.442 5.19995 10.0002 5.19995C9.55837 5.19995 9.2002 5.55812 9.2002 5.99995C9.2002 6.44178 9.55837 6.79995 10.0002 6.79995Z" fill="white"/>
<path d="M9.2002 8.40002H10.8002V14H9.2002V8.40002Z" fill="white"/>
</g>
<defs>
<clipPath id="clip0_4002_53301">
<rect width="16" height="16" fill="white" transform="translate(2 2)"/>
</clipPath>
</defs>
</svg>
