<svg width="32" height="32" viewBox="0 0 32 32" fill="none" xmlns="http://www.w3.org/2000/svg">
<g clip-path="url(#clip0_4716_55701)">
<path d="M16 32C24.8366 32 32 24.8366 32 16C32 7.16344 24.8366 0 16 0C7.16344 0 0 7.16344 0 16C0 24.8366 7.16344 32 16 32Z" fill="#86DAF1"/>
<mask id="mask0_4716_55701" style="mask-type:alpha" maskUnits="userSpaceOnUse" x="0" y="0" width="33" height="32">
<circle cx="16.002" cy="16" r="16" fill="#C4C4C4"/>
</mask>
<g mask="url(#mask0_4716_55701)">
<path d="M17.6218 7.92194C17.2405 7.47575 17.0101 6.92029 16.9638 6.33514C16.9174 5.75 17.0575 5.1652 17.3639 4.66454C17.6703 4.16387 18.1273 3.77304 18.6694 3.54803C19.2115 3.32302 19.811 3.27538 20.3818 3.41194C20.7857 3.53457 21.2192 3.51695 21.6118 3.36194C22.4418 2.88194 22.6118 1.98194 23.4618 1.36194C24.3118 0.74194 31.6418 5.36194 31.6418 5.36194C30.591 6.4961 29.2799 7.35754 27.8218 7.87194C25.8218 8.40194 25.0918 6.45194 22.3818 6.97194C21.1318 7.21194 20.2718 9.71194 17.6618 7.97194L17.6218 7.92194Z" fill="#03AA6F"/>
<path d="M3.92275 0.596687C3.92275 0.596687 7.92275 0.246687 9.41275 2.09669C10.9028 3.94669 13.5928 2.45669 14.4128 3.01669C15.2328 3.57669 15.2128 6.45669 11.5328 5.99669C7.85275 5.53669 10.5328 7.84669 8.34275 9.99669C7.61812 10.6626 6.73395 11.1302 5.77572 11.3545C4.81748 11.5787 3.81761 11.5519 2.87275 11.2767C1.02275 10.7967 0.762754 13.6367 2.06275 14.8367C2.29837 15.0094 2.48997 15.2353 2.62204 15.4959C2.75411 15.7565 2.82294 16.0445 2.82294 16.3367C2.82294 16.6288 2.75411 16.9169 2.62204 17.1775C2.48997 17.4381 2.29837 17.6639 2.06275 17.8367C0.262754 18.8367 -2.84725 18.5567 -3.93725 11.3867C-5.02725 4.21669 3.92275 0.596687 3.92275 0.596687Z" fill="#03AA6F"/>
<path d="M2.53346 24.8583C2.53346 24.0583 1.42346 23.6683 1.28346 22.8583C1.11346 21.9083 1.28346 19.1283 3.85346 19.3483C5.60346 19.4883 5.06346 21.5883 6.15346 21.5383C7.24346 21.4883 8.77346 19.1583 10.3735 20.1183C12.7735 21.5483 11.2235 23.0483 12.1035 24.1983C12.9835 25.3483 13.7435 24.2483 14.4735 25.8683C14.6537 26.1822 14.7493 26.5376 14.7509 26.8996C14.7526 27.2616 14.6601 27.6178 14.4827 27.9333C14.3053 28.2488 14.0489 28.5129 13.7388 28.6996C13.4287 28.8863 13.0753 28.9892 12.7135 28.9983C10.7635 29.1383 11.8535 30.7383 10.8535 31.8383C9.85346 32.9383 8.27346 31.8383 8.74346 33.4283C9.21346 35.0183 9.59346 36.3583 8.00346 36.4283C6.00346 36.4883 1.90346 32.3583 2.68346 29.5383C3.76346 25.6183 2.46346 27.1283 2.53346 24.8583Z" fill="#03AA6F"/>
<path d="M33.6533 32.7C32.8158 32.719 31.9959 32.4577 31.3238 31.9577C30.6517 31.4577 30.1658 30.7476 29.9433 29.94C29.1433 27.29 30.1833 26.79 29.7133 25.69C29.2433 24.59 27.6633 23 27.5333 21.06C27.4033 19.12 25.3233 19.18 23.8633 19.54C22.4033 19.9 18.6933 19.65 18.4333 15.84C18.1733 12.03 21.2933 9.84002 22.8933 11.43C24.0333 12.56 24.1733 13.43 25.7433 13.75C27.3133 14.07 31.4433 14.11 32.3833 11.68L36.6233 16L33.6533 32.7Z" fill="#03AA6F"/>
</g>
</g>
<defs>
<clipPath id="clip0_4716_55701">
<rect width="32" height="32" fill="white"/>
</clipPath>
</defs>
</svg>
