<svg width="33" height="32" viewBox="0 0 33 32" fill="none" xmlns="http://www.w3.org/2000/svg">
<g clip-path="url(#clip0_4716_55761)">
<path d="M21.4043 5.35242H5.17908V10.0401H21.4043V5.35242Z" fill="#4F78C1"/>
<path d="M28.0026 0H12.4222V3.32378H28.0026V0Z" fill="#EF9F00"/>
<path d="M21.4043 7.70203H3.9469V32H21.4043V7.70203Z" fill="#6E95ED"/>
<path d="M21.4043 7.70203H3.9469V32H21.4043V7.70203Z" fill="#6E95ED"/>
<path d="M28.9469 2.08594H11.4895V32H28.9469V2.08594Z" fill="#FFC545"/>
<path d="M18.4678 5.89111H15.3241V9.02005H18.4678V5.89111Z" fill="#F6F3F3"/>
<path d="M25.1007 5.89111H21.957V9.02005H25.1007V5.89111Z" fill="#F6F3F3"/>
<path d="M18.4678 11.4498H15.3241V14.5788H18.4678V11.4498Z" fill="#F6F3F3"/>
<path d="M25.1007 11.4498H21.957V14.5788H25.1007V11.4498Z" fill="#F6F3F3"/>
<path d="M18.4678 16.9971H15.3241V20.1261H18.4678V16.9971Z" fill="#F6F3F3"/>
<path d="M25.1007 16.9971H21.957V20.1261H25.1007V16.9971Z" fill="#F6F3F3"/>
<path d="M18.4678 22.5558H15.3241V25.6848H18.4678V22.5558Z" fill="#F6F3F3"/>
<path d="M25.1007 22.5558H21.957V25.6848H25.1007V22.5558Z" fill="#F6F3F3"/>
</g>
<defs>
<clipPath id="clip0_4716_55761">
<rect width="25" height="32" fill="white" transform="translate(3.9469)"/>
</clipPath>
</defs>
</svg>
