<svg width="33" height="32" viewBox="0 0 33 32" fill="none" xmlns="http://www.w3.org/2000/svg">
<g clip-path="url(#clip0_4806_60516)">
<path d="M32.6069 7.70691H0.606934V26.2931H32.6069V7.70691Z" fill="#21B547"/>
<path d="M5.60136 7.70691H0.606934V12.8752C1.93263 12.8719 3.20295 12.326 4.13925 11.3571C5.07555 10.3882 5.60136 9.0755 5.60136 7.70691Z" fill="#53D37A"/>
<path d="M27.6006 7.70691H32.595V12.8752C31.2693 12.8719 29.999 12.326 29.0627 11.3571C28.1264 10.3882 27.6006 9.0755 27.6006 7.70691Z" fill="#53D37A"/>
<path d="M27.6006 26.2931H32.595V21.1248C31.2693 21.1281 29.999 21.674 29.0627 22.6429C28.1264 23.6118 27.6006 24.9245 27.6006 26.2931Z" fill="#53D37A"/>
<path d="M5.60136 26.2931H0.606934V21.1248C1.93263 21.1281 3.20295 21.674 4.13925 22.6429C5.07555 23.6118 5.60136 24.9245 5.60136 26.2931Z" fill="#53D37A"/>
<path d="M32.6069 7.70691H0.606934V9.60972H32.6069V7.70691Z" fill="#53D37A"/>
<path d="M32.6069 24.378H0.606934V26.2808H32.6069V24.378Z" fill="#53D37A"/>
<path d="M32.6069 26.2931V7.70691H30.7638V26.2931H32.6069Z" fill="#53D37A"/>
<path d="M2.46204 26.2931L2.46204 7.70691H0.618855L0.618855 26.2931H2.46204Z" fill="#53D37A"/>
<path d="M16.601 22.868C19.7403 22.868 22.2851 20.2408 22.2851 17C22.2851 13.7592 19.7403 11.132 16.601 11.132C13.4617 11.132 10.9169 13.7592 10.9169 17C10.9169 20.2408 13.4617 22.868 16.601 22.868Z" fill="#53D37A"/>
<g clip-path="url(#clip1_4806_60516)">
<path d="M19.1011 14L17.9647 16.2111H18.7488V16.9136H17.6125L17.1352 17.7774H18.6693V18.4914H17.1238V20.0115H15.9875V18.4914H14.5216V17.7774H16.0329L15.5897 16.9136H14.4534V16.2226H15.2147L14.0784 14.0115H15.2147L16.6011 16.7639L17.8966 14H19.1011Z" fill="#099333"/>
</g>
<path d="M26.1069 29.878C29.1445 29.878 31.6069 27.4156 31.6069 24.378C31.6069 21.3404 29.1445 18.878 26.1069 18.878C23.0694 18.878 20.6069 21.3404 20.6069 24.378C20.6069 27.4156 23.0694 29.878 26.1069 29.878Z" fill="#FFDE50"/>
<path d="M26.1069 28.6682C28.4763 28.6682 30.3972 26.7474 30.3972 24.378C30.3972 22.0085 28.4763 20.0877 26.1069 20.0877C23.7375 20.0877 21.8167 22.0085 21.8167 24.378C21.8167 26.7474 23.7375 28.6682 26.1069 28.6682Z" fill="#FFBD00"/>
<g clip-path="url(#clip2_4806_60516)">
<path d="M28.5779 22L27.4765 23.8093H28.2591V24.3839H27.1287L26.6649 25.1051H28.1142V25.7041H26.6649V26.9266H25.5635V25.7041H24.0272V25.154H25.549L25.0997 24.4328H23.9693V23.8093H24.7229L23.6069 21.9633H24.7953L26.0852 24.2616L27.3895 21.9633L28.5779 22Z" fill="#F68E00"/>
</g>
</g>
<defs>
<clipPath id="clip0_4806_60516">
<rect width="32" height="32" fill="white" transform="translate(0.606934)"/>
</clipPath>
<clipPath id="clip1_4806_60516">
<rect width="5" height="6" fill="white" transform="translate(14.1011 14)"/>
</clipPath>
<clipPath id="clip2_4806_60516">
<rect width="5" height="5" fill="white" transform="translate(23.6069 22)"/>
</clipPath>
</defs>
</svg>
