<svg width="33" height="32" viewBox="0 0 33 32" fill="none" xmlns="http://www.w3.org/2000/svg">
<g clip-path="url(#clip0_4716_55690)">
<rect x="0.855713" y="4" width="32" height="24" fill="#F6F3F3"/>
<path d="M32.8557 7H0.855713V10H32.8557V7Z" fill="#D80027"/>
<path d="M32.8557 13H0.855713V16H32.8557V13Z" fill="#D80027"/>
<path d="M32.8557 19H0.855713V22H32.8557V19Z" fill="#D80027"/>
<path d="M32.8557 25H0.855713V28H32.8557V25Z" fill="#D80027"/>
<path d="M14.0728 4H0.855713V16.1207H14.0728V4Z" fill="#0052B4"/>
<path d="M3.09871 4.78381L3.49691 5.69477L4.48424 5.78751L3.74238 6.44754L3.95512 7.41305L3.09871 6.91121L2.24775 7.41305L2.46049 6.44754L1.71863 5.78751L2.70596 5.69477L3.09871 4.78381Z" fill="#F6F3F3"/>
<path d="M7.40608 4.78381L7.80428 5.69477L8.79161 5.78751L8.04975 6.44754L8.26249 7.41305L7.40608 6.91121L6.55512 7.41305L6.76786 6.44754L6.026 5.78751L7.01333 5.69477L7.40608 4.78381Z" fill="#F6F3F3"/>
<path d="M11.7224 4.78381L12.1152 5.69477L13.1025 5.78751L12.3607 6.44754L12.5734 7.41305L11.7224 6.91121L10.866 7.41305L11.0788 6.44754L10.3369 5.78751L11.3242 5.69477L11.7224 4.78381Z" fill="#F6F3F3"/>
<path d="M3.09871 8.70276L3.49691 9.61372L4.48424 9.70645L3.74238 10.3665L3.95512 11.332L3.09871 10.8302L2.24775 11.332L2.46049 10.3665L1.71863 9.70645L2.70596 9.61372L3.09871 8.70276Z" fill="#F6F3F3"/>
<path d="M7.40608 8.70276L7.80428 9.61372L8.79161 9.70645L8.04975 10.3665L8.26249 11.332L7.40608 10.8302L6.55512 11.332L6.76786 10.3665L6.026 9.70645L7.01333 9.61372L7.40608 8.70276Z" fill="#F6F3F3"/>
<path d="M11.7224 8.70276L12.1152 9.61372L13.1025 9.70645L12.3607 10.3665L12.5734 11.332L11.7224 10.8302L10.866 11.332L11.0788 10.3665L10.3369 9.70645L11.3242 9.61372L11.7224 8.70276Z" fill="#F6F3F3"/>
<path d="M3.09871 12.3467L3.49691 13.2577L4.48424 13.3504L3.74238 14.0105L3.95512 14.976L3.09871 14.4741L2.24775 14.976L2.46049 14.0105L1.71863 13.3504L2.70596 13.2577L3.09871 12.3467Z" fill="#F6F3F3"/>
<path d="M7.40608 12.3467L7.80428 13.2577L8.79161 13.3504L8.04975 14.0105L8.26249 14.976L7.40608 14.4741L6.55512 14.976L6.76786 14.0105L6.026 13.3504L7.01333 13.2577L7.40608 12.3467Z" fill="#F6F3F3"/>
<path d="M11.7224 12.3467L12.1152 13.2577L13.1025 13.3504L12.3607 14.0105L12.5734 14.976L11.7224 14.4741L10.866 14.976L11.0788 14.0105L10.3369 13.3504L11.3242 13.2577L11.7224 12.3467Z" fill="#F6F3F3"/>
</g>
<defs>
<clipPath id="clip0_4716_55690">
<rect width="32" height="32" fill="white" transform="translate(0.855713)"/>
</clipPath>
</defs>
</svg>
