<svg width="32" height="32" viewBox="0 0 32 32" fill="none" xmlns="http://www.w3.org/2000/svg">
<path d="M26.8233 4.91205L0.876831 12.8249L5.32872 27.4228L31.2752 19.51L26.8233 4.91205Z" fill="#38A85A"/>
<path d="M29.6372 8.54077H2.51099V23.8024H29.6372V8.54077Z" fill="#43C970"/>
<path d="M16.0809 20.9812C18.742 20.9812 20.8993 18.8239 20.8993 16.1628C20.8993 13.5016 18.742 11.3444 16.0809 11.3444C13.4197 11.3444 11.2625 13.5016 11.2625 16.1628C11.2625 18.8239 13.4197 20.9812 16.0809 20.9812Z" fill="#53D37A"/>
<path d="M6.75658 8.5329H2.52283V12.7767C3.64661 12.7741 4.72346 12.3258 5.51716 11.5302C6.31085 10.7346 6.75658 9.65669 6.75658 8.5329Z" fill="#53D37A"/>
<path d="M25.4044 8.5329H29.6382V12.7767C28.5144 12.7741 27.4375 12.3258 26.6438 11.5302C25.8501 10.7346 25.4044 9.65669 25.4044 8.5329Z" fill="#53D37A"/>
<path d="M25.4044 23.7942H29.6382V19.5504C28.5144 19.5531 27.4375 20.0014 26.6438 20.797C25.8501 21.5925 25.4044 22.6705 25.4044 23.7942Z" fill="#53D37A"/>
<path d="M6.75658 23.7942H2.52283V19.5504C3.64661 19.5531 4.72346 20.0014 5.51716 20.797C6.31085 21.5925 6.75658 22.6705 6.75658 23.7942Z" fill="#53D37A"/>
<path d="M29.6372 8.54077H2.51099V10.1032H29.6372V8.54077Z" fill="#53D37A"/>
<path d="M29.6372 22.228H2.51099V23.7905H29.6372V22.228Z" fill="#53D37A"/>
<path d="M29.6374 23.8024V8.54077H28.0749V23.8024H29.6374Z" fill="#53D37A"/>
<path d="M4.08411 23.7946L4.08411 8.5329H2.52165L2.52165 23.7946H4.08411Z" fill="#53D37A"/>
</svg>
