<svg width="33" height="32" viewBox="0 0 33 32" fill="none" xmlns="http://www.w3.org/2000/svg">
<g clip-path="url(#clip0_4716_55708)">
<rect x="0.975952" y="4" width="32" height="24" fill="#D80027"/>
<path d="M8.95593 10.53L10.6059 14.31L14.7159 14.71L11.6259 17.44L12.5159 21.47L8.95593 19.38L5.40593 21.47L6.29593 17.44L3.20593 14.71L7.31593 14.31L8.95593 10.53Z" fill="#FFC545"/>
<path d="M20.406 23.66L18.806 23.03L17.486 24.13L17.586 22.41L16.136 21.49L17.806 21.06L18.236 19.39L19.156 20.84L20.876 20.74L19.776 22.06L20.406 23.66Z" fill="#FFC545"/>
<path d="M23.586 16L22.006 16.68L21.836 18.4L20.706 17.11L19.026 17.48L19.896 16L19.026 14.52L20.706 14.89L21.836 13.6L22.006 15.32L23.586 16Z" fill="#FFC545"/>
<path d="M20.406 8.34L19.776 9.93999L20.876 11.26L19.156 11.16L18.236 12.61L17.806 10.94L16.136 10.51L17.586 9.59L17.486 7.87L18.806 8.97L20.406 8.34Z" fill="#FFC545"/>
</g>
<defs>
<clipPath id="clip0_4716_55708">
<rect width="32" height="32" fill="white" transform="translate(0.975952)"/>
</clipPath>
</defs>
</svg>
