<svg width="32" height="32" viewBox="0 0 32 32" fill="none" xmlns="http://www.w3.org/2000/svg">
<path d="M32 7.70691H0V26.2931H32V7.70691Z" fill="#21B547"/>
<path d="M4.99443 7.70691H0V12.8752C1.3257 12.8719 2.59602 12.326 3.53232 11.3571C4.46861 10.3882 4.99443 9.0755 4.99443 7.70691Z" fill="#53D37A"/>
<path d="M26.9937 7.70691H31.9881V12.8752C30.6624 12.8719 29.3921 12.326 28.4558 11.3571C27.5195 10.3882 26.9936 9.0755 26.9937 7.70691Z" fill="#53D37A"/>
<path d="M26.9937 26.2931H31.9881V21.1248C30.6624 21.1281 29.3921 21.674 28.4558 22.6429C27.5195 23.6118 26.9936 24.9245 26.9937 26.2931Z" fill="#53D37A"/>
<path d="M4.99443 26.2931H0V21.1248C1.3257 21.1281 2.59602 21.674 3.53232 22.6429C4.46861 23.6118 4.99443 24.9245 4.99443 26.2931Z" fill="#53D37A"/>
<path d="M32 7.70691H0V9.60972H32V7.70691Z" fill="#53D37A"/>
<path d="M32 24.378H0V26.2808H32V24.378Z" fill="#53D37A"/>
<path d="M32 26.2931V7.70691H30.1568V26.2931H32Z" fill="#53D37A"/>
<path d="M1.8551 26.2931L1.8551 7.70691H0.0119213L0.0119213 26.2931H1.8551Z" fill="#53D37A"/>
<path d="M15.9941 22.868C19.1333 22.868 21.6782 20.2408 21.6782 17C21.6782 13.7592 19.1333 11.132 15.9941 11.132C12.8548 11.132 10.3099 13.7592 10.3099 17C10.3099 20.2408 12.8548 22.868 15.9941 22.868Z" fill="#53D37A"/>
<path d="M17.647 18.0189C17.6564 18.3736 17.5502 18.7214 17.3454 19.0063C17.1405 19.2912 16.8489 19.4969 16.5173 19.5903V20.6829H15.566V19.578C15.381 19.5344 15.2043 19.4597 15.0428 19.357C14.8845 19.2596 14.747 19.1302 14.6384 18.9765C14.5368 18.8387 14.4566 18.6855 14.4006 18.5223C14.3595 18.3579 14.3396 18.1887 14.3412 18.0189H15.34C15.3393 18.1071 15.357 18.1944 15.3919 18.2749C15.4267 18.3554 15.478 18.4272 15.5422 18.4854C15.6018 18.5508 15.6736 18.603 15.7533 18.6389C15.8331 18.6748 15.919 18.6936 16.006 18.6941C16.0921 18.6952 16.1775 18.6783 16.2572 18.6446C16.3369 18.6108 16.4091 18.5609 16.4697 18.4977C16.5315 18.4356 16.5802 18.361 16.613 18.2787C16.6457 18.1963 16.6617 18.1079 16.66 18.0189C16.6648 17.9782 16.6648 17.9369 16.66 17.8962C16.6365 17.7697 16.5797 17.6523 16.4958 17.557C16.4119 17.4617 16.3041 17.3921 16.1843 17.356L15.3519 17.0246C15.1337 16.9147 14.9456 16.7501 14.8049 16.5458C14.6534 16.3179 14.5706 16.0488 14.5671 15.7724C14.5507 15.419 14.656 15.0711 14.8644 14.7903C15.0521 14.5682 15.2945 14.4028 15.566 14.3115V13.3171H16.5411V14.2379C16.7829 14.3294 16.9964 14.4863 17.1594 14.6921C17.2571 14.828 17.337 14.9766 17.3973 15.134C17.4538 15.2701 17.4861 15.4157 17.4924 15.5637H16.5173C16.5007 15.4366 16.4419 15.3194 16.3508 15.2322C16.2635 15.1494 16.1482 15.1053 16.0297 15.1095C15.9587 15.109 15.8886 15.1253 15.8247 15.1573C15.7608 15.1892 15.7048 15.2358 15.6611 15.2936C15.5634 15.4231 15.5129 15.5838 15.5184 15.7478C15.5184 15.9074 15.6254 16.0547 15.8395 16.1652C16.0014 16.2357 16.1684 16.2932 16.3389 16.3371C16.7189 16.4028 17.0622 16.6106 17.3034 16.9207C17.5446 17.2308 17.6669 17.6217 17.647 18.0189Z" fill="#099333"/>
<path d="M25.5 29.878C28.5376 29.878 31 27.4156 31 24.378C31 21.3404 28.5376 18.878 25.5 18.878C22.4624 18.878 20 21.3404 20 24.378C20 27.4156 22.4624 29.878 25.5 29.878Z" fill="#FFDE50"/>
<path d="M25.5 28.6682C27.8694 28.6682 29.7902 26.7474 29.7902 24.378C29.7902 22.0085 27.8694 20.0877 25.5 20.0877C23.1305 20.0877 21.2097 22.0085 21.2097 24.378C21.2097 26.7474 23.1305 28.6682 25.5 28.6682Z" fill="#FFBD00"/>
<path d="M26.8095 25.1637C26.8131 25.4322 26.73 25.6946 26.5725 25.912C26.4074 26.1301 26.1752 26.2879 25.9115 26.361V27.1717H25.1508V26.3485C25.0055 26.3178 24.8664 26.263 24.7392 26.1864C24.6125 26.1135 24.5054 26.0107 24.4274 25.8871C24.3439 25.7833 24.2805 25.6649 24.2403 25.5379C24.2187 25.4099 24.2187 25.2792 24.2403 25.1512H24.9263C24.929 25.2924 24.9872 25.4269 25.0884 25.5254C25.1355 25.5734 25.1918 25.6115 25.254 25.6372C25.3161 25.6629 25.3828 25.6758 25.4501 25.6751C25.5193 25.676 25.5879 25.6633 25.6521 25.6376C25.7164 25.612 25.7748 25.5738 25.8242 25.5254C25.8732 25.4764 25.9118 25.418 25.9375 25.3537C25.9632 25.2894 25.9756 25.2205 25.9739 25.1512V25.0639C25.9516 24.9673 25.904 24.8783 25.8361 24.806C25.7682 24.7337 25.6823 24.6807 25.5873 24.6524L24.9263 24.3905C24.7325 24.3059 24.5697 24.1634 24.4602 23.9825C24.3508 23.8016 24.3001 23.5912 24.3152 23.3803C24.3 23.1334 24.3697 22.8888 24.5126 22.6869C24.6555 22.485 24.863 22.3381 25.1009 22.2703V21.5844H25.8741V22.2828C26.0683 22.3532 26.2404 22.4737 26.373 22.632C26.45 22.7355 26.5129 22.8487 26.5601 22.9687C26.606 23.0752 26.6313 23.1895 26.6349 23.3054H25.8617C25.8538 23.2093 25.8091 23.12 25.7369 23.056C25.7032 23.0205 25.6625 22.9923 25.6175 22.973C25.5725 22.9537 25.524 22.9438 25.475 22.9438C25.4187 22.9437 25.3632 22.9573 25.3132 22.9834C25.2633 23.0094 25.2204 23.0472 25.1882 23.0934C25.1033 23.1895 25.0586 23.3145 25.0635 23.4426C25.0635 23.5673 25.1508 23.6796 25.3254 23.7544C25.4489 23.8141 25.5785 23.8601 25.712 23.8916C26.0205 23.9288 26.3041 24.0798 26.5071 24.3151C26.7101 24.5504 26.818 24.8531 26.8095 25.1637Z" fill="#F68E00"/>
</svg>
