<svg width="32" height="32" viewBox="0 0 32 32" fill="none" xmlns="http://www.w3.org/2000/svg">
<path d="M32 4H0V16H32V4Z" fill="#ED1F34"/>
<path d="M32 16H0V28H32V16Z" fill="#F6F3F3"/>
<path d="M11.3321 6.50629L11.5914 6.96158L12.1036 7.06908L11.7558 7.46114L11.8064 7.97967L11.3321 7.771L10.8515 7.97967L10.9021 7.46114L10.5543 7.06908L11.0665 6.96158L11.3321 6.50629Z" fill="#F7F7F7"/>
<path d="M9.44152 7.97968L9.70711 8.42865L10.2193 8.54247L9.87152 8.92821L9.92211 9.44674L9.44152 9.23806L8.96725 9.44674L9.01784 8.92821L8.67004 8.54247L9.18225 8.42865L9.44152 7.97968Z" fill="#F7F7F7"/>
<path d="M13.2165 7.97968L13.4758 8.42865L13.988 8.54247L13.6402 8.92821L13.6908 9.44674L13.2165 9.23806L12.736 9.44674L12.7929 8.92821L12.4451 8.54247L12.951 8.42865L13.2165 7.97968Z" fill="#F7F7F7"/>
<path d="M10.2192 10.0854L10.4785 10.5344L10.9907 10.6419L10.6429 11.0339L10.6935 11.5525L10.2192 11.3438L9.73861 11.5525L9.7892 11.0339L9.44141 10.6419L9.95361 10.5344L10.2192 10.0854Z" fill="#F7F7F7"/>
<path d="M12.4452 10.0854L12.7044 10.5344L13.2166 10.6419L12.8688 11.0339L12.9194 11.5525L12.4452 11.3438L11.9646 11.5525L12.0152 11.0339L11.6674 10.6419L12.1796 10.5344L12.4452 10.0854Z" fill="#F7F7F7"/>
<path d="M9.14169 13.5631C8.322 13.3734 7.57961 12.9384 7.01356 12.3159C6.4475 11.6935 6.08467 10.9133 5.97348 10.0793C5.86228 9.24536 6.008 8.39732 6.3912 7.64831C6.7744 6.8993 7.37687 6.28494 8.11823 5.88716C7.47603 5.8175 6.82644 5.8992 6.22149 6.12571C5.61654 6.35222 5.07304 6.71725 4.63451 7.19156C4.19599 7.66587 3.87463 8.23627 3.69617 8.8571C3.51771 9.47793 3.48711 10.1319 3.60682 10.7667C3.72653 11.4015 3.99323 11.9994 4.38555 12.5126C4.77787 13.0258 5.28492 13.4399 5.86608 13.7219C6.44723 14.004 7.08636 14.1459 7.73225 14.1366C8.37815 14.1272 9.01288 13.9667 9.5856 13.6679C9.43501 13.6452 9.28654 13.6101 9.14169 13.5631Z" fill="#F7F7F7"/>
</svg>
