<svg width="20" height="20" viewBox="0 0 20 20" fill="none" xmlns="http://www.w3.org/2000/svg">
<path d="M14.2397 14.24C13.1691 15.3093 11.7178 15.9098 10.2047 15.9098C8.69157 15.9098 7.24031 15.3093 6.16969 14.24C5.10287 13.1681 4.50397 11.7173 4.50397 10.205C4.50397 8.69269 5.10287 7.24192 6.16969 6.17C7.24031 5.10075 8.69157 4.50016 10.2047 4.50016C11.7178 4.50016 13.1691 5.10075 14.2397 6.17C14.7771 6.7074 15.2021 7.34651 15.4897 8.05L18.2097 8.41C17.7634 6.39696 16.5794 4.62401 14.891 3.4404C13.2027 2.25679 11.1323 1.74831 9.08768 2.01514C7.04309 2.28196 5.17253 3.30474 3.84446 4.88201C2.51639 6.45928 1.82708 8.47669 1.91233 10.5369C1.99758 12.597 2.8512 14.5506 4.30504 16.0127C5.75888 17.4749 7.70755 18.3396 9.76719 18.4366C11.8268 18.5336 13.8481 17.8558 15.433 16.5368C17.0178 15.2177 18.0512 13.353 18.3297 11.31L15.8397 10.99C15.6797 12.2202 15.1171 13.363 14.2397 14.24V14.24Z" fill="#A4A6B8"/>
<path d="M18.3798 8.43L13.2998 7.77L17.7198 3.35L18.3798 8.43Z" fill="#A4A6B8"/>
</svg>
