<svg width="48" height="48" viewBox="0 0 48 48" fill="none" xmlns="http://www.w3.org/2000/svg">
<g clip-path="url(#clip0_6827_86864)">
<path d="M23.9907 7C27.7062 7 31.2695 8.44903 33.8968 11.0283C36.524 13.6076 38 17.1059 38 20.7536V39H10V20.7536C10 17.1059 11.476 13.6076 14.1032 11.0283C16.7305 8.44903 20.2938 7 24.0093 7H23.9907Z" fill="#FF9FAE"/>
<path d="M24 24C25.3261 24 26.5979 24.4993 27.5355 25.3882C28.4732 26.277 29 27.4825 29 28.7395V39H19V28.7295C19.0028 27.4742 19.5308 26.2713 20.4682 25.3846C21.4056 24.498 22.6757 24 24 24Z" fill="#FF4646"/>
<path d="M41 39H7V44H41V39Z" fill="#FF7489"/>
</g>
<defs>
<clipPath id="clip0_6827_86864">
<rect width="38.15" height="39.9" fill="white" transform="translate(5 4)"/>
</clipPath>
</defs>
</svg>
