<svg width="48" height="48" viewBox="0 0 48 48" fill="none" xmlns="http://www.w3.org/2000/svg">
<circle cx="24" cy="25" r="15" fill="#FFCBCB"/>
<path d="M39.2788 30.0347C38.2424 33.3686 36.144 36.2721 33.3036 38.3022C30.4632 40.3323 27.0367 41.3777 23.5467 41.2788C20.0568 41.1798 16.695 39.9421 13.9741 37.7544C11.2532 35.5667 9.32261 32.549 8.47672 29.1617C7.63083 25.7744 7.9161 22.2034 9.28903 18.9933C10.662 15.7833 13.0472 13.1104 16.0809 11.3824C19.1146 9.65438 22.6302 8.96608 26.0916 9.42248C29.553 9.87888 32.7701 11.4549 35.2522 13.9102" stroke="#FF7A8E" stroke-width="3" stroke-miterlimit="10"/>
<path fill-rule="evenodd" clip-rule="evenodd" d="M29 13.4945L29.1007 15.9121L36.7405 15.6013L35.8766 8L33.4651 8.27273L34.0439 13.2874L29 13.4945ZM29.7227 14.1579L29.7207 14.158L29.7638 15.1921L35.9684 14.9397L35.9684 14.9395L29.7657 15.1918L29.7227 14.1579ZM34.2345 8.8826L34.2326 8.88282L34.8173 13.9485L34.8193 13.9484L34.2345 8.8826Z" fill="#FF7A8E"/>
<path d="M24 17.9609V25.2765L28.0978 29.3832" stroke="#FE4864" stroke-width="3" stroke-miterlimit="10"/>
</svg>
