<svg width="56" height="56" viewBox="0 0 56 56" fill="none" xmlns="http://www.w3.org/2000/svg">
<g clip-path="url(#clip0_6827_87099)">
<path d="M31.46 6H8V48.16H42.4V16.59H31.46V6Z" fill="#CCD0E5"/>
<path d="M31.46 16.59H42.4L31.46 6V16.59Z" fill="#EBEFFF"/>
<path d="M13.3101 20.7803H31.4601" stroke="#999DAD" stroke-width="3" stroke-miterlimit="10"/>
<path d="M13.3101 27.6904H31.4601" stroke="#999DAD" stroke-width="3" stroke-miterlimit="10"/>
<path d="M13.3101 34.5898H24.3501" stroke="#999DAD" stroke-width="3" stroke-miterlimit="10"/>
<path d="M39.75 50.3496C44.2953 50.3496 47.98 46.665 47.98 42.1196C47.98 37.5743 44.2953 33.8896 39.75 33.8896C35.2047 33.8896 31.52 37.5743 31.52 42.1196C31.52 46.665 35.2047 50.3496 39.75 50.3496Z" fill="#00BF6D"/>
<path d="M36.77 42.7197L38.62 44.5697L43.5 39.6797" stroke="white" stroke-width="2" stroke-miterlimit="10"/>
</g>
<defs>
<clipPath id="clip0_6827_87099">
<rect width="39.98" height="44.35" fill="white" transform="translate(8 6)"/>
</clipPath>
</defs>
</svg>
